<!DOCTYPE svg PUBLIC "-//W3C//DTD SVG 1.1//EN" "http://www.w3.org/Graphics/SVG/1.1/DTD/svg11.dtd">
<!-- Uploaded to: SVG Repo, www.svgrepo.com, Transformed by: SVG Repo Mixer Tools -->
<svg fill="#ffffff" height="800px" width="800px" version="1.1" id="Capa_1" xmlns="http://www.w3.org/2000/svg" xmlns:xlink="http://www.w3.org/1999/xlink" viewBox="0 0 350.148 350.148" xml:space="preserve">
<g id="SVGRepo_bgCarrier" stroke-width="0"/>
<g id="SVGRepo_tracerCarrier" stroke-linecap="round" stroke-linejoin="round"/>
<g id="SVGRepo_iconCarrier"> <g> <path d="M143.124,107.687c-10.355,0-18.78,8.425-18.78,18.78v156.137c0,10.355,8.425,18.78,18.78,18.78s18.78-8.425,18.78-18.78 V126.467C161.904,116.112,153.479,107.687,143.124,107.687z M152.904,282.604c0,5.393-4.387,9.78-9.78,9.78 c-5.393,0-9.78-4.387-9.78-9.78V126.467c0-5.393,4.387-9.78,9.78-9.78c5.393,0,9.78,4.387,9.78,9.78V282.604z"/> <path d="M201.877,107.687c-12.479,0-22.631,10.153-22.631,22.632v148.434c0,12.479,10.153,22.632,22.632,22.632 s22.631-10.152,22.631-22.632V130.319C224.509,117.84,214.356,107.687,201.877,107.687z M215.509,278.753 c0,7.517-6.115,13.632-13.631,13.632h-0.001c-7.516,0-13.631-6.115-13.631-13.632V130.319c0-7.517,6.115-13.632,13.632-13.632 c7.516,0,13.631,6.115,13.631,13.632V278.753z"/> <path d="M260.631,107.687c-10.355,0-18.78,8.425-18.78,18.78v156.137c0,10.355,8.425,18.78,18.78,18.78s18.78-8.425,18.78-18.78 V126.467C279.411,116.112,270.987,107.687,260.631,107.687z M270.411,282.604c0,5.393-4.387,9.78-9.78,9.78 c-5.393,0-9.78-4.387-9.78-9.78V126.467c0-5.393,4.387-9.78,9.78-9.78c5.393,0,9.78,4.387,9.78,9.78V282.604z"/> <path d="M308.459,61.108c0-17.321-14.091-31.412-31.412-31.412c-2.102,0-4.185,0.208-6.231,0.622 c-4.841-11.488-16.168-19.182-28.94-19.182c-4.364,0-8.651,0.905-12.613,2.644C223.477,5.286,213.713,0,203.271,0 c-10.436,0-20.203,5.286-25.997,13.779c-3.956-1.738-8.242-2.643-12.607-2.643c-12.937,0-24.492,8.072-29.183,19.796 c-2.826-0.821-5.761-1.236-8.772-1.236c-17.321,0-31.412,14.091-31.412,31.412c0,7.479,2.623,14.596,7.413,20.25v21.186h-6.748 c-29.928,0-54.275,24.348-54.275,54.275v73.984c0,29.928,24.348,54.276,54.275,54.276h6.748v30.22c0,2.485,2.015,4.5,4.5,4.5 c11.921,0,21.619,9.698,21.619,21.619v4.229c0,2.485,2.015,4.5,4.5,4.5h137.092c2.485,0,4.5-2.015,4.5-4.5v-4.229 c0-11.921,9.698-21.619,21.619-21.619c2.691,0,4.5-2.16,4.5-4.5V81.352C305.835,75.694,308.459,68.579,308.459,61.108z M111.712,310.178v-211.6h180.33v211.6H111.712z M292.043,84.167v5.41h-180.33v-5.41H292.043z M126.712,38.696 c3.408,0,6.672,0.74,9.703,2.199c1.242,0.598,2.69,0.594,3.929-0.011c1.239-0.605,2.131-1.746,2.422-3.093 c2.209-10.23,11.42-17.655,21.901-17.655c4.231,0,8.355,1.191,11.927,3.445c1.085,0.685,2.412,0.874,3.645,0.519 c1.233-0.354,2.256-1.219,2.813-2.376C186.765,13.995,194.702,9,203.271,9c8.572,0,16.505,4.993,20.21,12.72 c0.555,1.157,1.577,2.022,2.81,2.378c1.232,0.356,2.559,0.168,3.645-0.516c3.583-2.255,7.712-3.447,11.94-3.447 c10.218,0,19.138,6.897,21.692,16.774c0.316,1.224,1.134,2.259,2.251,2.85c1.117,0.592,2.433,0.685,3.623,0.259 c2.45-0.878,5.008-1.323,7.604-1.323c12.358,0,22.412,10.054,22.412,22.412c0,5.165-1.766,10.087-4.987,14.059H109.278 c-3.216-3.968-4.978-8.889-4.978-14.059C104.3,48.75,114.354,38.696,126.712,38.696z M95.965,276.08 c-24.965,0-45.275-20.31-45.275-45.276V156.82c0-24.965,20.311-45.275,45.275-45.275h6.748v14.184h-6.043 c-18.032,0-32.702,14.67-32.702,32.702v70.764c0,18.032,14.67,32.702,32.702,32.702h6.043v14.184H95.965z M102.712,134.728v118.168 h-6.043c-13.069,0-23.702-10.633-23.702-23.702V158.43c0-13.069,10.632-23.702,23.702-23.702H102.712z M265.925,341.148H137.83 c-0.076-8.645-3.754-16.443-9.601-21.971h147.296C269.679,324.706,266,332.504,265.925,341.148z"/> </g> </g>
</svg>